<svg width="426" height="299" viewBox="0 0 426 299" fill="none" xmlns="http://www.w3.org/2000/svg">
<path d="M37.3531 1.67808C39.1354 2.7564 40.012 4.56971 39.3111 5.72821C38.6102 6.88671 36.5971 6.95171 34.8148 5.87339C33.0325 4.79507 32.1559 2.98176 32.8568 1.82326C33.5577 0.664756 35.5707 0.599759 37.3531 1.67808Z" fill="white"/>
<path d="M49.1939 9.20615C50.9762 10.2845 51.8529 12.0978 51.152 13.2563C50.451 14.4148 48.438 14.4798 46.6557 13.4015C44.8734 12.3231 43.9967 10.5098 44.6976 9.35132C45.3985 8.19283 47.4116 8.12782 49.1939 9.20615Z" fill="white"/>
<path d="M61.5914 17.1597C63.3737 18.238 64.2504 20.0513 63.5495 21.2098C62.8486 22.3683 60.8355 22.4333 59.0532 21.355C57.2709 20.2767 56.3942 18.4634 57.0951 17.3049C57.7961 16.1464 59.8091 16.0814 61.5914 17.1597Z" fill="white"/>
<path d="M12.0006 46.1631C13.8344 47.1513 15.8417 46.986 16.484 45.794C17.1264 44.6021 16.1604 42.8347 14.3266 41.8465C12.4928 40.8584 10.4855 41.0236 9.84315 42.2156C9.20085 43.4076 10.1668 45.1749 12.0006 46.1631Z" fill="white"/>
<path d="M24.4917 52.4324C26.3256 53.4206 28.3329 53.2554 28.9752 52.0634C29.6175 50.8714 28.6516 49.104 26.8177 48.1159C24.9839 47.1277 22.9766 47.2929 22.3343 48.4849C21.692 49.6769 22.6579 51.4443 24.4917 52.4324Z" fill="white"/>
<path d="M37.2635 59.731C39.0974 60.7192 41.1047 60.554 41.747 59.362C42.3893 58.17 41.4233 56.4026 39.5895 55.4145C37.7557 54.4263 35.7484 54.5915 35.1061 55.7835C34.4638 56.9755 35.4297 58.7429 37.2635 59.731Z" fill="white"/>
<path fill-rule="evenodd" clip-rule="evenodd" d="M312.358 294.591C363.072 311.06 396.477 265.985 408.571 241.4C433.556 197.678 425.152 173.038 418.862 154.599C418.698 154.117 418.535 153.64 418.374 153.166C412.059 134.569 370.843 110.147 340.924 119.55C316.99 127.072 297.913 111.573 291.367 102.883C286.882 95.8967 280.175 89.4664 270.375 84.8814C241.856 71.5379 216.667 95.2427 207.638 108.763L64.4576 32.8058L58.3058 24.946L44.6182 16.2091L32.6813 8.58974L19.3121 0.056038L14.4933 1.64657L0.925405 25.389L1.34631 31.4943L15.3893 38.8491L28.262 45.591L42.305 52.9457L52.0126 54.5834L191.917 137.792C181.508 154.868 177.203 185.207 193.974 201.09C209.67 215.955 229.339 217.872 242.056 219.111C242.928 219.196 243.767 219.278 244.571 219.361C254.582 220.39 262.15 234.337 264.683 241.182C273.502 265.408 288.344 286.792 312.358 294.591ZM288.478 175.596C296.333 161.85 291.778 144.465 278.304 136.765C264.83 129.065 247.539 133.966 239.683 147.711C231.828 161.457 236.384 178.842 249.858 186.542C263.332 194.242 280.623 189.341 288.478 175.596Z" fill="white"/>
</svg>
