<svg width="371" height="338" viewBox="0 0 371 338" fill="none" xmlns="http://www.w3.org/2000/svg">
<path d="M320.147 25.0192L317.752 22.455L294.206 16.8104L281.409 14.1712L272.854 13.5898L268.383 16.1508L261.391 22.3321L249.626 39.227L255.502 44.5134L255.01 48.6508L251.508 53.679L252.924 57.6512L245.834 65.2583L160.044 198.751L162.256 200.291L162.885 202.82L158.949 202.468L155.702 204.986L153.181 208.606L158.209 212.108L156.809 214.119L155.092 218.3L156.001 220.426L152.851 221.518L149.946 223.974L147.425 227.595L131.807 253.454L128.028 252.018L118.224 266.097L118.293 269.43L116.123 269.114L113.509 267.293L108.567 266.241L103.097 271.093L113.319 280.003L114.892 282.891L111.646 285.409L108.284 290.236L85.9001 324.525L82.5061 324.252L80.2684 320.603L78.8605 319.623L72.4178 328.875L69.6452 328.139L63.8124 324.077L60.6448 326.052L63.4606 328.013L54.2021 335.304L44.6488 337.014L37.9146 333.818L33.3424 327.946L19.8203 324.205L8.51383 315.137L2.29997 303.044L0.944976 282.688L4.16961 271.195L11.4991 255.094L17.1014 247.049L37.2755 187.627L42.8631 173.598L46.2101 161.072L43.4364 145.326L57.7093 152.278L69.1412 155.162L95.5926 158.35L110.989 156.826L111.865 156.516L108.379 164.864L103.876 179.051L99.4621 188.82L94.1904 200.679L87.992 211.296L88.6027 214.708L136.363 146.122L190.325 76.7789L197.483 72.5046L214.29 48.369L222.733 44.3928L224.327 39.5299L230.102 36.3835L232.07 36.5594L237.253 29.1175L233.431 26.4564L233.337 21.0153L237.213 21.0259L241.034 23.687L255.353 8.27167L264.715 2.54639L275.371 0.110846L291.404 4.10739L295.534 1.60752L303.73 3.13351L306.948 5.37443L305.005 7.30675L308.625 9.8278L320.398 12.6501L322.945 11.138L324.238 14.4277L324.245 17.4195L323.893 21.3557L320.147 25.0192Z" fill="white"/>
<path d="M31.9751 131.599L27.5571 121.127L30.0175 115.842L36.2272 112.53L42.9903 109.475L53.0149 110.144L71.5377 112.158L84.745 113.454L97.336 115.959L113.089 120.358L123.321 125.393L129.38 131.703L129.614 136.943L124.151 144.787L111.865 156.516L110.989 156.826L95.5926 158.35L69.1412 155.162L57.7093 152.278L43.4364 145.326L36.7663 139.083L31.9751 131.599Z" fill="white"/>
<path d="M26.0868 116.265C24.3974 126.278 46.6178 138.376 75.7174 143.285C104.817 148.195 129.776 144.058 131.466 134.045C133.155 124.032 110.935 111.935 81.8353 107.025C52.7357 102.115 27.7763 106.252 26.0868 116.265Z" fill="white"/>
<path d="M322.945 11.138L334.074 5.44855L336.021 5.01209L340.108 9.6503L339.983 15.8348L336.621 20.662L320.147 25.0192L323.893 21.3557L324.245 17.4195L324.238 14.4277L322.945 11.138Z" fill="white"/>
<path d="M353.979 16.3226L351.027 24.4216L342.434 22.179L345.801 13.9131L344.621 6.60027L353.202 9.21118L353.979 16.3226Z" fill="white"/>
<path d="M370.551 27.2651L351.027 24.4216L353.979 16.3226L353.202 9.21118L354.726 9.67473L358.317 16.9545L370.551 27.2651Z" fill="white"/>
</svg>
