<svg width="192" height="177" viewBox="0 0 192 177" fill="none" xmlns="http://www.w3.org/2000/svg">
<path d="M42.189 58.959L66.2372 99.1838L33 135.879L66.5463 129.07L56.776 150.058L94.7249 141.206L115.391 157.498L123.983 135.879L165.373 150.058L152.132 112.873L168.886 70.2975L135.35 87.8411L133.086 38.7641L107.477 70.2975L82.354 36V79.2103L42.189 58.959Z" fill="#2A2A2A" stroke="#2A2A2A" stroke-width="23.1805"/>
<path d="M50.4457 68.343L70.9998 101.201L42.5918 131.176L71.2641 125.615L62.9133 142.759L95.3485 135.528L113.012 148.836L120.355 131.176L155.732 142.759L144.415 112.383L158.734 77.605L130.071 91.9358L128.136 51.8465L106.248 77.605L84.7751 49.5886V84.8856L50.4457 68.343Z" stroke="white" stroke-width="13.8239"/>
<circle cx="102.335" cy="99.1795" r="15.7308" fill="#4346FD" stroke="white" stroke-width="0.126352"/>
</svg>
