<svg width="263" height="216" viewBox="0 0 263 216" fill="none" xmlns="http://www.w3.org/2000/svg">
<path d="M7.26956 155.261L28.9912 174.08L50.1859 190.094L73.4065 208.326L186.502 156.805L205.89 147.973L253.993 126.06L245.745 110.634L238.847 113.739L211.624 125.993L206.789 128.169L195.565 133.222L192.417 134.638L176.718 141.705L173.712 143.058L160.017 149.222L156.677 150.726L143.261 156.765L139.641 158.394L127.783 163.732L123.107 165.836L104.402 174.256L100.486 176.019L80.0179 185.232L80.4183 176.416L46.6894 148.217L52.7667 133.279L60.4498 129.808L75.6491 122.942L85.0025 118.717L97.8634 112.907L107.384 108.606L111.288 106.842L118.575 103.551L129.932 98.4199L139.286 94.1945L150.309 89.2147L158.995 85.2911L168.181 81.1413L177.701 76.8405L181.209 75.256L190.395 71.1061L199.582 66.9562L208.768 62.8063L217.954 58.6564L194.236 8.17253L22.6394 83.4153L7.26956 155.261Z" fill="black"/>
<path d="M60.4498 129.808L85.798 158.828L89.8211 156.698L93.928 154.524L98.0349 152.349L75.6491 122.942L60.4498 129.808Z" fill="black"/>
<path d="M85.0025 118.717L105.671 146.316L109.598 144.04L113.263 141.916L116.928 139.793L97.8634 112.907L85.0025 118.717Z" fill="black"/>
<path d="M118.575 103.551L137.632 130.59L143.13 128.423L146.794 126.979L148.627 126.257L129.932 98.4199L118.575 103.551Z" fill="black"/>
<path d="M139.286 94.1945L157.327 122.002L159.667 120.899L163.095 119.284L166.522 117.669L150.309 89.2147L139.286 94.1945Z" fill="black"/>
<path d="M158.995 85.2911L175.085 112.823L178.094 111.407L181.187 109.952L184.28 108.496L168.181 81.1413L158.995 85.2911Z" fill="black"/>
<path d="M190.395 71.1061L207.099 99.5535L216.308 94.9003L199.582 66.9562L190.395 71.1061Z" fill="black"/>
<path d="M245.745 110.634L217.954 58.6564L208.768 62.8063L238.847 113.739L245.745 110.634Z" fill="black"/>
<path d="M89.8211 156.698L100.486 176.019L104.402 174.256L93.928 154.524L89.8211 156.698Z" fill="black"/>
<path d="M109.598 144.04L123.107 165.836L127.783 163.732L113.263 141.916L109.598 144.04Z" fill="black"/>
<path d="M107.384 108.606L139.641 158.394L143.261 156.765L111.288 106.842L107.384 108.606Z" fill="black"/>
<path d="M143.13 128.423L156.677 150.726L160.017 149.222L146.794 126.979L143.13 128.423Z" fill="black"/>
<path d="M159.667 120.899L173.712 143.058L176.718 141.705L163.095 119.284L159.667 120.899Z" fill="black"/>
<path d="M178.094 111.407L192.417 134.638L195.565 133.222L181.187 109.952L178.094 111.407Z" fill="black"/>
<path d="M177.701 76.8405L206.789 128.169L211.624 125.993L181.209 75.256L177.701 76.8405Z" fill="black"/>
<path d="M52.7667 133.279L46.6894 148.217L80.4183 176.416L80.0179 185.232L100.486 176.019L89.8211 156.698L85.798 158.828L60.4498 129.808L52.7667 133.279Z" fill="#F7F7F7"/>
<path d="M75.6491 122.942L98.0349 152.349L93.928 154.524L104.402 174.256L123.107 165.836L109.598 144.04L105.671 146.316L85.0025 118.717L75.6491 122.942Z" fill="white"/>
<path d="M97.8634 112.907L116.928 139.793L113.263 141.916L127.783 163.732L139.641 158.394L107.384 108.606L97.8634 112.907Z" fill="white"/>
<path d="M137.632 130.59L118.575 103.551L111.288 106.842L143.261 156.765L156.677 150.726L143.13 128.423L137.632 130.59Z" fill="#F3F3F3"/>
<path d="M129.932 98.4199L148.627 126.257L146.794 126.979L160.017 149.222L173.712 143.058L159.667 120.899L157.327 122.002L139.286 94.1945L129.932 98.4199Z" fill="#F9F9F9"/>
<path d="M150.309 89.2147L166.522 117.669L163.095 119.284L176.718 141.705L192.417 134.638L178.094 111.407L175.085 112.823L158.995 85.2911L150.309 89.2147Z" fill="#FBFBFB"/>
<path d="M168.181 81.1413L184.28 108.496L181.187 109.952L195.565 133.222L206.789 128.169L177.701 76.8405L168.181 81.1413Z" fill="#FBF8F8"/>
<path d="M207.099 99.5535L190.395 71.1061L181.209 75.256L211.624 125.993L238.847 113.739L208.768 62.8063L199.582 66.9562L216.308 94.9003L207.099 99.5535Z" fill="#EFEFEF"/>
<path d="M4.23312 154.611L3.84918 156.406L5.23631 157.608L26.9579 176.427L27.0364 176.495L27.1193 176.557L48.2911 192.554L71.4889 210.768L72.9747 211.935L74.6938 211.152L187.79 159.631L207.177 150.799L255.28 128.885L258.291 127.514L256.731 124.596L250.051 112.101L248.483 109.17L247.116 106.612L220.731 57.2632L197.046 6.85211L195.76 4.11378L192.989 5.32875L21.3924 80.5715L19.9357 81.2103L19.6029 82.7657L4.23312 154.611Z" stroke="white" stroke-width="6.21031"/>
</svg>
