<svg width="190" height="176" viewBox="0 0 190 176" fill="none" xmlns="http://www.w3.org/2000/svg">
<path d="M3.55406 142.228L9.89363 144.481L40.4481 98.0337C38.4826 104.095 36.5102 110.25 34.7195 115.949C32.4839 123.065 30.5218 129.504 29.2097 134.178C28.5571 136.502 28.0472 138.453 27.7469 139.851C27.6024 140.524 27.4764 141.203 27.4289 141.774C27.4091 142.012 27.3749 142.511 27.4737 143.06C27.5194 143.314 27.6492 143.921 28.0883 144.543C28.6313 145.311 29.6319 146.041 30.9757 146.041C31.8209 146.041 32.4958 145.724 32.627 145.663C32.6331 145.66 32.638 145.658 32.6418 145.656C32.8999 145.537 33.1444 145.4 33.3446 145.281C33.7552 145.038 34.2389 144.717 34.7572 144.357C35.8069 143.627 37.1998 142.597 38.8308 141.358C42.103 138.87 46.4603 135.441 51.2117 131.648C56.6108 127.339 62.5421 122.541 68.0108 118.089L45.6629 168.564L51.0838 172.597L100.8 129.991V137.007V144.199L106.423 139.715L135.148 116.81V152.171L141.867 153.353L178.256 53.0813L182.023 42.7003L173.002 49.0705L127.788 80.9982L134.692 47.4923L136.948 36.5448L128.897 44.2986L91.0628 80.738V37.3542V30.4005L85.5126 34.5896L62.1559 52.2189V16V8.0289L56.3289 13.4681L10.0779 56.6406L8.97771 57.6676V59.1725V88.7076L3.55406 142.228ZM34.3322 142.348C34.3325 142.345 34.3327 142.342 34.333 142.339C34.3316 142.377 34.3293 142.383 34.3322 142.348Z" fill="#E1B609" stroke="white" stroke-width="6.92718"/>
</svg>
