<svg width="150" height="121" viewBox="0 0 150 121" fill="none" xmlns="http://www.w3.org/2000/svg">
<path d="M7.80168 53.3576L8.60019 54.6576L37.9545 105.156C38.1813 106.557 38.637 107.933 39.3619 109.253C42.1546 114.339 47.7943 116.501 53.5429 116.72C59.379 116.942 66.0678 115.251 72.3573 111.799C78.6467 108.347 83.6646 103.612 86.61 98.5695C89.5113 93.6025 90.7133 87.6835 87.9205 82.5978C85.1278 77.5123 79.488 75.3494 73.7395 75.1306C67.9034 74.9084 61.2146 76.5998 54.9251 80.052C52.0846 81.6112 49.5035 83.4318 47.2555 85.4243L40.073 73.0683L82.2934 47.3824L95.4886 70.0822C95.8127 71.6893 96.4331 73.2441 97.4079 74.6929C100.643 79.5006 106.456 81.1696 112.21 80.9036C118.056 80.6334 124.589 78.393 130.571 74.4346C136.553 70.4768 141.154 65.35 143.657 60.0868C146.123 54.8991 146.802 48.9062 143.559 44.0862C140.324 39.2785 134.511 37.6095 128.756 37.8755C122.911 38.1457 116.378 40.386 110.396 44.3445C108.114 45.854 106.034 47.5335 104.194 49.3258L89.5535 24.1398L89.5895 24.1182L87.6787 20.9145L81.0238 9.46613L79.1417 6.22833L78.9763 6.32398L78.6789 5.82532L75.444 7.79334L9.04914 48.1864L5.82878 50.1456L7.80168 53.3576Z" fill="black" stroke="white" stroke-width="7.50694"/>
</svg>
