<svg width="229" height="185" viewBox="0 0 229 185" fill="none" xmlns="http://www.w3.org/2000/svg">
<mask id="path-1-outside-1_806_93" maskUnits="userSpaceOnUse" x="-0.60577" y="-12.4752" width="233.55" height="213.866" fill="black">
<rect fill="white" x="-0.60577" y="-12.4752" width="233.55" height="213.866"/>
<path d="M60.0748 33.5162L63.1666 26.4101L73.3645 22.3958L76.4563 15.2897C78.1383 11.424 82.7885 9.59347 86.6542 11.2754L93.7603 14.3672C97.626 16.0492 99.4565 20.6994 97.7746 24.5651L94.6828 31.6712L84.4849 35.6855L81.3931 42.7916L88.4992 45.8834L85.4074 52.9895L49.8769 37.5305L52.9687 30.4244L60.0748 33.5162ZM83.5624 18.3815L80.4706 25.4876L70.2727 29.5019L67.1809 36.608L74.287 39.6998L77.3788 32.5937L87.5767 28.5794L90.6685 21.4733L83.5624 18.3815Z"/>
<path d="M123.676 35.8345L126.768 28.7284L133.874 31.8202L130.782 38.9263L152.1 48.2017L149.008 55.3078L134.796 49.1242L138.81 59.3221L135.719 66.4282L142.825 69.52L139.733 76.6261L132.57 73.5096C128.729 71.7708 126.931 67.2021 128.613 63.3364L131.704 56.2303L127.69 46.0324L118.415 67.3507L111.309 64.2589L120.584 42.9406L110.386 46.9549L107.294 54.061C105.612 57.9267 101.044 59.7251 97.1532 58.1L89.9902 54.9835L93.0821 47.8774L100.188 50.9692L103.28 43.8631L113.478 39.8488L99.2657 33.6652L102.357 26.5591L123.676 35.8345Z"/>
<path d="M159.521 59.8819L162.613 52.7758C164.295 48.9101 168.945 47.0796 172.811 48.7615L179.917 51.8533C183.783 53.5353 185.613 58.1855 183.931 62.0512L180.839 69.1573L170.642 73.1716L164.458 87.3838L157.352 84.292L160.444 77.1859L153.338 74.0941L150.246 81.2002L143.14 78.1084L149.323 63.8962L159.521 59.8819ZM173.733 66.0655L176.825 58.9594L169.719 55.8676L166.627 62.9737L156.429 66.988L163.535 70.0798L173.733 66.0655Z"/>
<path d="M187.364 63.5448L190.456 56.4387L211.774 65.7141L208.682 72.8202L198.484 76.8345C202.35 78.5165 204.181 83.1667 202.499 87.0324L199.407 94.1385C197.725 98.0042 193.075 99.8347 189.209 98.1528L174.997 91.9692L178.089 84.8631L192.301 91.0467L195.393 83.9406L188.287 80.8488L191.378 73.7427L201.576 69.7284L187.364 63.5448Z"/>
<path d="M59.1913 82.1648L66.2974 85.2566L63.2056 92.3627L56.0427 89.2462C52.2017 87.5074 50.4033 82.9387 52.0852 79.073L55.177 71.9669L51.1627 61.769L41.8873 83.0873L34.7812 79.9955L50.2403 44.465L57.3464 47.5568L54.2545 54.6629L75.5728 63.9383L72.481 71.0444L58.2688 64.8608L62.2831 75.0587L59.1913 82.1648Z"/>
<path d="M88.1815 86.3269L85.0897 93.433C83.4077 97.2987 78.7575 99.1292 74.8918 97.4473L67.7857 94.3555L70.8775 87.2494L77.9836 90.3412L81.0754 83.2351L77.0611 73.0372L83.2447 58.825L104.563 68.1004L98.3794 82.3126L102.394 92.5105L96.2101 106.723L89.104 103.631L95.2876 89.4187L91.2733 79.2208L94.3651 72.1147L87.259 69.0229L84.1672 76.129L88.1815 86.3269Z"/>
<path d="M119.086 82.8707L122.178 75.7646L129.284 78.8564L126.192 85.9625L115.994 89.9768L123.101 93.0686L133.298 89.0543L136.39 81.9482L143.496 85.04L140.405 92.1461L130.207 96.1604L124.023 110.373C122.341 114.238 117.691 116.069 113.825 114.387L99.6129 108.203L102.705 101.097L116.917 107.281L122.111 95.3426L121.713 95.1694C119.535 97.5345 115.972 98.4186 112.903 97.0829C109.037 95.4009 107.206 90.7507 108.888 86.885L119.086 82.8707Z"/>
<path d="M142.71 101.601L148.894 87.3883L170.212 96.6638L167.12 103.77L152.908 97.5862L149.816 104.692L156.922 107.784L150.739 121.996C149.057 125.862 144.406 127.693 140.541 126.011L126.329 119.827L132.512 105.615L142.71 101.601ZM143.633 118.905L149.816 104.692L139.618 108.707L136.526 115.813L143.633 118.905Z"/>
<path d="M30.9507 102.008L37.1343 87.7958L58.4526 97.0712L55.3608 104.177L41.1486 97.9937L38.0568 105.1L45.1629 108.192L38.9792 122.404C37.2973 126.269 32.6471 128.1 28.7813 126.418L14.5692 120.234L20.7528 106.022L30.9507 102.008ZM31.8732 119.312L38.0568 105.1L27.8589 109.114L24.7671 116.22L31.8732 119.312Z"/>
<path d="M65.6952 125.576L62.6034 132.682C60.9215 136.548 56.2712 138.379 52.4055 136.697L45.2994 133.605L48.3912 126.499L55.4973 129.591L58.5891 122.485L54.5748 112.287L60.7584 98.0745L82.0767 107.35L75.8931 121.562L79.9074 131.76L73.7238 145.972L66.6177 142.88L72.8013 128.668L68.787 118.47L71.8788 111.364L64.7727 108.272L61.6809 115.378L65.6952 125.576Z"/>
<path d="M77.1167 147.448L83.3003 133.236L93.4982 129.222L99.6818 115.01L106.788 118.102L103.696 125.208L110.802 128.299C112.484 124.434 117.134 122.603 121 124.285L128.106 127.377C131.972 129.059 133.802 133.709 132.12 137.575L129.029 144.681L118.831 148.695L115.739 155.801C114.057 159.667 109.407 161.498 105.541 159.816L98.4349 156.724C94.5692 155.042 92.7387 150.392 94.4206 146.526L97.5125 139.42L107.71 135.405L100.604 132.314L90.4064 136.328L84.2227 150.54L77.1167 147.448ZM117.908 131.391L114.816 138.497L104.619 142.512L101.527 149.618L108.633 152.709L111.725 145.603L121.923 141.589L125.014 134.483L117.908 131.391Z"/>
<path d="M135.549 139.067L138.641 131.961L159.959 141.236L156.867 148.342L146.669 152.356C150.535 154.038 152.366 158.689 150.684 162.554L147.592 169.66C145.91 173.526 141.26 175.357 137.394 173.675L123.182 167.491L126.274 160.385L140.486 166.569L143.578 159.462L136.472 156.371L139.563 149.265L149.761 145.25L135.549 139.067Z"/>
</mask>
<path d="M60.0748 33.5162L63.1666 26.4101L73.3645 22.3958L76.4563 15.2897C78.1383 11.424 82.7885 9.59347 86.6542 11.2754L93.7603 14.3672C97.626 16.0492 99.4565 20.6994 97.7746 24.5651L94.6828 31.6712L84.4849 35.6855L81.3931 42.7916L88.4992 45.8834L85.4074 52.9895L49.8769 37.5305L52.9687 30.4244L60.0748 33.5162ZM83.5624 18.3815L80.4706 25.4876L70.2727 29.5019L67.1809 36.608L74.287 39.6998L77.3788 32.5937L87.5767 28.5794L90.6685 21.4733L83.5624 18.3815Z" fill="white"/>
<path d="M123.676 35.8345L126.768 28.7284L133.874 31.8202L130.782 38.9263L152.1 48.2017L149.008 55.3078L134.796 49.1242L138.81 59.3221L135.719 66.4282L142.825 69.52L139.733 76.6261L132.57 73.5096C128.729 71.7708 126.931 67.2021 128.613 63.3364L131.704 56.2303L127.69 46.0324L118.415 67.3507L111.309 64.2589L120.584 42.9406L110.386 46.9549L107.294 54.061C105.612 57.9267 101.044 59.7251 97.1532 58.1L89.9902 54.9835L93.0821 47.8774L100.188 50.9692L103.28 43.8631L113.478 39.8488L99.2657 33.6652L102.357 26.5591L123.676 35.8345Z" fill="white"/>
<path d="M159.521 59.8819L162.613 52.7758C164.295 48.9101 168.945 47.0796 172.811 48.7615L179.917 51.8533C183.783 53.5353 185.613 58.1855 183.931 62.0512L180.839 69.1573L170.642 73.1716L164.458 87.3838L157.352 84.292L160.444 77.1859L153.338 74.0941L150.246 81.2002L143.14 78.1084L149.323 63.8962L159.521 59.8819ZM173.733 66.0655L176.825 58.9594L169.719 55.8676L166.627 62.9737L156.429 66.988L163.535 70.0798L173.733 66.0655Z" fill="white"/>
<path d="M187.364 63.5448L190.456 56.4387L211.774 65.7141L208.682 72.8202L198.484 76.8345C202.35 78.5165 204.181 83.1667 202.499 87.0324L199.407 94.1385C197.725 98.0042 193.075 99.8347 189.209 98.1528L174.997 91.9692L178.089 84.8631L192.301 91.0467L195.393 83.9406L188.287 80.8488L191.378 73.7427L201.576 69.7284L187.364 63.5448Z" fill="white"/>
<path d="M59.1913 82.1648L66.2974 85.2566L63.2056 92.3627L56.0427 89.2462C52.2017 87.5074 50.4033 82.9387 52.0852 79.073L55.177 71.9669L51.1627 61.769L41.8873 83.0873L34.7812 79.9955L50.2403 44.465L57.3464 47.5568L54.2545 54.6629L75.5728 63.9383L72.481 71.0444L58.2688 64.8608L62.2831 75.0587L59.1913 82.1648Z" fill="white"/>
<path d="M88.1815 86.3269L85.0897 93.433C83.4077 97.2987 78.7575 99.1292 74.8918 97.4473L67.7857 94.3555L70.8775 87.2494L77.9836 90.3412L81.0754 83.2351L77.0611 73.0372L83.2447 58.825L104.563 68.1004L98.3794 82.3126L102.394 92.5105L96.2101 106.723L89.104 103.631L95.2876 89.4187L91.2733 79.2208L94.3651 72.1147L87.259 69.0229L84.1672 76.129L88.1815 86.3269Z" fill="white"/>
<path d="M119.086 82.8707L122.178 75.7646L129.284 78.8564L126.192 85.9625L115.994 89.9768L123.101 93.0686L133.298 89.0543L136.39 81.9482L143.496 85.04L140.405 92.1461L130.207 96.1604L124.023 110.373C122.341 114.238 117.691 116.069 113.825 114.387L99.6129 108.203L102.705 101.097L116.917 107.281L122.111 95.3426L121.713 95.1694C119.535 97.5345 115.972 98.4186 112.903 97.0829C109.037 95.4009 107.206 90.7507 108.888 86.885L119.086 82.8707Z" fill="white"/>
<path d="M142.71 101.601L148.894 87.3883L170.212 96.6638L167.12 103.77L152.908 97.5862L149.816 104.692L156.922 107.784L150.739 121.996C149.057 125.862 144.406 127.693 140.541 126.011L126.329 119.827L132.512 105.615L142.71 101.601ZM143.633 118.905L149.816 104.692L139.618 108.707L136.526 115.813L143.633 118.905Z" fill="white"/>
<path d="M30.9507 102.008L37.1343 87.7958L58.4526 97.0712L55.3608 104.177L41.1486 97.9937L38.0568 105.1L45.1629 108.192L38.9792 122.404C37.2973 126.269 32.6471 128.1 28.7813 126.418L14.5692 120.234L20.7528 106.022L30.9507 102.008ZM31.8732 119.312L38.0568 105.1L27.8589 109.114L24.7671 116.22L31.8732 119.312Z" fill="#4346FD"/>
<path d="M65.6952 125.576L62.6034 132.682C60.9215 136.548 56.2712 138.379 52.4055 136.697L45.2994 133.605L48.3912 126.499L55.4973 129.591L58.5891 122.485L54.5748 112.287L60.7584 98.0745L82.0767 107.35L75.8931 121.562L79.9074 131.76L73.7238 145.972L66.6177 142.88L72.8013 128.668L68.787 118.47L71.8788 111.364L64.7727 108.272L61.6809 115.378L65.6952 125.576Z" fill="#4346FD"/>
<path d="M77.1167 147.448L83.3003 133.236L93.4982 129.222L99.6818 115.01L106.788 118.102L103.696 125.208L110.802 128.299C112.484 124.434 117.134 122.603 121 124.285L128.106 127.377C131.972 129.059 133.802 133.709 132.12 137.575L129.029 144.681L118.831 148.695L115.739 155.801C114.057 159.667 109.407 161.498 105.541 159.816L98.4349 156.724C94.5692 155.042 92.7387 150.392 94.4206 146.526L97.5125 139.42L107.71 135.405L100.604 132.314L90.4064 136.328L84.2227 150.54L77.1167 147.448ZM117.908 131.391L114.816 138.497L104.619 142.512L101.527 149.618L108.633 152.709L111.725 145.603L121.923 141.589L125.014 134.483L117.908 131.391Z" fill="#4346FD"/>
<path d="M135.549 139.067L138.641 131.961L159.959 141.236L156.867 148.342L146.669 152.356C150.535 154.038 152.366 158.689 150.684 162.554L147.592 169.66C145.91 173.526 141.26 175.357 137.394 173.675L123.182 167.491L126.274 160.385L140.486 166.569L143.578 159.462L136.472 156.371L139.563 149.265L149.761 145.25L135.549 139.067Z" fill="#4346FD"/>
<path d="M60.0748 33.5162L55.8862 43.1431L65.5131 47.3317L69.7017 37.7048L60.0748 33.5162ZM63.1666 26.4101L59.3211 16.641L55.2747 18.2339L53.5397 22.2215L63.1666 26.4101ZM73.3645 22.3958L77.21 32.1648L81.2565 30.572L82.9914 26.5844L73.3645 22.3958ZM94.6828 31.6712L98.5283 41.4403L102.575 39.8474L104.31 35.8598L94.6828 31.6712ZM84.4849 35.6855L80.6394 25.9165L76.5929 27.5093L74.858 31.4969L84.4849 35.6855ZM81.3931 42.7916L71.7662 38.603L67.5776 48.2299L77.2045 52.4185L81.3931 42.7916ZM88.4992 45.8834L98.1261 50.072L102.315 40.4451L92.6878 36.2565L88.4992 45.8834ZM85.4074 52.9895L81.2188 62.6164L90.8457 66.805L95.0343 57.1781L85.4074 52.9895ZM49.8769 37.5305L40.25 33.3419L36.0614 42.9688L45.6883 47.1574L49.8769 37.5305ZM52.9687 30.4244L57.1573 20.7975L47.5304 16.6089L43.3418 26.2358L52.9687 30.4244ZM83.5624 18.3815L87.751 8.75459L78.1241 4.566L73.9355 14.1929L83.5624 18.3815ZM80.4706 25.4876L84.3161 35.2566L88.3625 33.6638L90.0975 29.6762L80.4706 25.4876ZM70.2727 29.5019L66.4272 19.7329L62.3808 21.3257L60.6458 25.3133L70.2727 29.5019ZM67.1809 36.608L57.554 32.4194L53.3654 42.0463L62.9923 46.2349L67.1809 36.608ZM74.287 39.6998L70.0984 49.3267L79.7253 53.5153L83.9139 43.8884L74.287 39.6998ZM77.3788 32.5937L73.5333 22.8247L69.4869 24.4175L67.7519 28.4051L77.3788 32.5937ZM87.5767 28.5794L91.4222 38.3484L95.4686 36.7556L97.2036 32.768L87.5767 28.5794ZM90.6685 21.4733L100.295 25.6619L104.484 16.035L94.8571 11.8464L90.6685 21.4733ZM123.676 35.8345L119.487 45.4614L129.114 49.65L133.303 40.0231L123.676 35.8345ZM126.768 28.7284L130.956 19.1015L121.329 14.9129L117.141 24.5398L126.768 28.7284ZM133.874 31.8202L143.501 36.0088L147.689 26.3819L138.062 22.1933L133.874 31.8202ZM130.782 38.9263L121.155 34.7377L116.966 44.3646L126.593 48.5532L130.782 38.9263ZM152.1 48.2017L161.727 52.3903L165.916 42.7634L156.289 38.5748L152.1 48.2017ZM149.008 55.3078L144.82 64.9347L154.447 69.1233L158.635 59.4964L149.008 55.3078ZM134.796 49.1242L138.985 39.4973L115.743 29.3851L125.027 52.9697L134.796 49.1242ZM138.81 59.3221L148.437 63.5107L150.172 59.5231L148.579 55.4766L138.81 59.3221ZM135.719 66.4282L126.092 62.2396L121.903 71.8665L131.53 76.0551L135.719 66.4282ZM142.825 69.52L152.452 73.7086L156.64 64.0817L147.013 59.8931L142.825 69.52ZM139.733 76.6261L135.544 86.253L145.171 90.4416L149.36 80.8147L139.733 76.6261ZM132.57 73.5096L128.24 83.0739L128.311 83.1057L128.381 83.1365L132.57 73.5096ZM131.704 56.2303L141.331 60.4189L143.066 56.4313L141.473 52.3848L131.704 56.2303ZM127.69 46.0324L137.459 42.1869L128.175 18.6024L118.063 41.8438L127.69 46.0324ZM118.415 67.3507L114.226 76.9776L123.853 81.1662L128.042 71.5393L118.415 67.3507ZM111.309 64.2589L101.682 60.0703L97.493 69.6972L107.12 73.8858L111.309 64.2589ZM120.584 42.9406L130.211 47.1292L140.323 23.8878L116.738 33.1716L120.584 42.9406ZM110.386 46.9549L106.541 37.1858L102.494 38.7787L100.759 42.7663L110.386 46.9549ZM97.1532 58.1L92.9646 67.7269L93.0354 67.7577L93.1066 67.7875L97.1532 58.1ZM89.9902 54.9835L80.3633 50.7949L76.1747 60.4218L85.8016 64.6104L89.9902 54.9835ZM93.0821 47.8774L97.2706 38.2505L87.6437 34.0619L83.4551 43.6888L93.0821 47.8774ZM100.188 50.9692L95.9995 60.5961L105.626 64.7847L109.815 55.1578L100.188 50.9692ZM103.28 43.8631L99.4345 34.094L95.388 35.6869L93.653 39.6745L103.28 43.8631ZM113.478 39.8488L117.323 49.6178L140.908 40.334L117.666 30.2219L113.478 39.8488ZM99.2657 33.6652L89.6387 29.4766L85.4501 39.1035L95.0771 43.2921L99.2657 33.6652ZM102.357 26.5591L106.546 16.9322L96.9191 12.7436L92.7306 22.3705L102.357 26.5591ZM159.521 59.8819L163.367 69.6509L167.413 68.0581L169.148 64.0705L159.521 59.8819ZM180.839 69.1573L184.685 78.9263L188.731 77.3335L190.466 73.3459L180.839 69.1573ZM170.642 73.1716L166.796 63.4025L162.75 64.9954L161.015 68.983L170.642 73.1716ZM164.458 87.3838L160.269 97.0107L169.896 101.199L174.085 91.5724L164.458 87.3838ZM157.352 84.292L147.725 80.1034L143.536 89.7303L153.163 93.9189L157.352 84.292ZM160.444 77.1859L170.071 81.3745L174.259 71.7476L164.632 67.559L160.444 77.1859ZM153.338 74.0941L157.526 64.4672L147.899 60.2786L143.711 69.9055L153.338 74.0941ZM150.246 81.2002L146.057 90.8271L155.684 95.0157L159.873 85.3888L150.246 81.2002ZM143.14 78.1084L133.513 73.9198L129.324 83.5467L138.951 87.7353L143.14 78.1084ZM149.323 63.8962L145.478 54.1271L141.431 55.72L139.696 59.7076L149.323 63.8962ZM173.733 66.0655L177.579 75.8345L181.625 74.2417L183.36 70.2541L173.733 66.0655ZM176.825 58.9594L186.452 63.148L190.641 53.5211L181.014 49.3325L176.825 58.9594ZM169.719 55.8676L173.908 46.2407L164.281 42.0521L160.092 51.679L169.719 55.8676ZM166.627 62.9737L170.473 72.7427L174.519 71.1499L176.254 67.1623L166.627 62.9737ZM156.429 66.988L152.584 57.2189L128.999 66.5027L152.241 76.6149L156.429 66.988ZM163.535 70.0798L159.347 79.7067L163.334 81.4417L167.381 79.8488L163.535 70.0798ZM187.364 63.5448L177.737 59.3562L173.549 68.9831L183.175 73.1717L187.364 63.5448ZM190.456 56.4387L194.644 46.8118L185.018 42.6232L180.829 52.2501L190.456 56.4387ZM211.774 65.7141L221.401 69.9027L225.59 60.2758L215.963 56.0872L211.774 65.7141ZM208.682 72.8202L212.528 82.5893L216.574 80.9964L218.309 77.0088L208.682 72.8202ZM198.484 76.8345L194.639 67.0655L171.054 76.3493L194.296 86.4614L198.484 76.8345ZM174.997 91.9692L165.37 87.7806L161.181 97.4075L170.808 101.596L174.997 91.9692ZM178.089 84.8631L182.277 75.2362L172.65 71.0476L168.462 80.6745L178.089 84.8631ZM192.301 91.0467L188.112 100.674L197.739 104.862L201.928 95.2353L192.301 91.0467ZM195.393 83.9406L205.02 88.1292L209.208 78.5023L199.581 74.3137L195.393 83.9406ZM188.287 80.8488L178.66 76.6602L174.471 86.2871L184.098 90.4757L188.287 80.8488ZM191.378 73.7427L187.533 63.9737L183.486 65.5665L181.751 69.5541L191.378 73.7427ZM201.576 69.7284L205.422 79.4975L229.006 70.2137L205.765 60.1015L201.576 69.7284ZM59.1913 82.1648L49.5644 77.9762L45.3758 87.6031L55.0027 91.7917L59.1913 82.1648ZM66.2974 85.2566L75.9243 89.4452L80.1129 79.8183L70.486 75.6297L66.2974 85.2566ZM63.2056 92.3627L59.017 101.99L68.6439 106.178L72.8325 96.5513L63.2056 92.3627ZM56.0427 89.2462L51.713 98.8105L51.7833 98.8423L51.8541 98.8731L56.0427 89.2462ZM55.177 71.9669L64.8039 76.1555L66.5389 72.1679L64.9461 68.1215L55.177 71.9669ZM51.1627 61.769L60.9318 57.9236L51.648 34.339L41.5358 57.5804L51.1627 61.769ZM41.8873 83.0873L37.6987 92.7142L47.3256 96.9028L51.5142 87.2759L41.8873 83.0873ZM34.7812 79.9955L25.1543 75.8069L20.9657 85.4338L30.5926 89.6224L34.7812 79.9955ZM50.2403 44.465L54.4289 34.8381L44.8019 30.6495L40.6133 40.2764L50.2403 44.465ZM57.3464 47.5568L66.9733 51.7454L71.1619 42.1185L61.5349 37.9299L57.3464 47.5568ZM54.2545 54.6629L44.6276 50.4743L40.439 60.1013L50.0659 64.2898L54.2545 54.6629ZM75.5728 63.9383L85.1997 68.1269L89.3883 58.5L79.7614 54.3114L75.5728 63.9383ZM72.481 71.0444L68.2924 80.6714L77.9193 84.86L82.1079 75.233L72.481 71.0444ZM58.2688 64.8608L62.4574 55.2339L39.216 45.1218L48.4998 68.7063L58.2688 64.8608ZM62.2831 75.0587L71.91 79.2473L73.645 75.2597L72.0522 71.2133L62.2831 75.0587ZM88.1815 86.3269L97.8084 90.5155L99.5434 86.5279L97.9505 82.4814L88.1815 86.3269ZM67.7857 94.3555L58.1588 90.1669L53.9702 99.7938L63.5971 103.982L67.7857 94.3555ZM70.8775 87.2494L75.0661 77.6225L65.4392 73.4339L61.2506 83.0608L70.8775 87.2494ZM77.9836 90.3412L73.795 99.9681L83.4219 104.157L87.6105 94.5298L77.9836 90.3412ZM81.0754 83.2351L90.7023 87.4237L92.4373 83.4361L90.8444 79.3896L81.0754 83.2351ZM77.0611 73.0372L67.4342 68.8486L65.6992 72.8362L67.2921 76.8827L77.0611 73.0372ZM83.2447 58.825L87.4333 49.1981L77.8064 45.0095L73.6178 54.6364L83.2447 58.825ZM104.563 68.1004L114.19 72.289L118.379 62.6621L108.752 58.4735L104.563 68.1004ZM98.3794 82.3126L88.7525 78.124L87.0175 82.1116L88.6103 86.1581L98.3794 82.3126ZM102.394 92.5105L112.021 96.6991L113.756 92.7115L112.163 88.6651L102.394 92.5105ZM96.2101 106.723L92.0215 116.35L101.648 120.538L105.837 110.911L96.2101 106.723ZM89.104 103.631L79.4771 99.4423L75.2885 109.069L84.9154 113.258L89.104 103.631ZM95.2876 89.4187L104.914 93.6073L106.649 89.6197L105.057 85.5732L95.2876 89.4187ZM91.2733 79.2208L81.6464 75.0322L79.9114 79.0198L81.5043 83.0663L91.2733 79.2208ZM94.3651 72.1147L103.992 76.3033L108.181 66.6764L98.5537 62.4878L94.3651 72.1147ZM87.259 69.0229L91.4476 59.396L81.8207 55.2074L77.6321 64.8343L87.259 69.0229ZM84.1672 76.129L74.5403 71.9404L72.8053 75.928L74.3982 79.9745L84.1672 76.129ZM119.086 82.8707L122.932 92.6397L126.978 91.0469L128.713 87.0593L119.086 82.8707ZM122.178 75.7646L126.367 66.1377L116.74 61.9491L112.551 71.576L122.178 75.7646ZM129.284 78.8564L138.911 83.045L143.1 73.4181L133.473 69.2295L129.284 78.8564ZM126.192 85.9625L130.038 95.7316L134.084 94.1387L135.819 90.1511L126.192 85.9625ZM115.994 89.9768L112.149 80.2078L88.5644 89.4916L111.806 99.6037L115.994 89.9768ZM123.101 93.0686L118.912 102.696L122.9 104.43L126.946 102.838L123.101 93.0686ZM133.298 89.0543L137.144 98.8234L141.19 97.2305L142.925 93.2429L133.298 89.0543ZM136.39 81.9482L140.579 72.3213L130.952 68.1327L126.763 77.7596L136.39 81.9482ZM143.496 85.04L153.123 89.2286L157.312 79.6017L147.685 75.4131L143.496 85.04ZM140.405 92.1461L144.25 101.915L148.296 100.322L150.031 96.3347L140.405 92.1461ZM130.207 96.1604L126.361 86.3914L122.315 87.9842L120.58 91.9718L130.207 96.1604ZM99.6129 108.203L89.986 104.015L85.7974 113.642L95.4243 117.83L99.6129 108.203ZM102.705 101.097L106.893 91.4703L97.2664 87.2817L93.0778 96.9086L102.705 101.097ZM116.917 107.281L112.728 116.908L122.355 121.096L126.544 111.469L116.917 107.281ZM122.111 95.3426L131.738 99.5311L135.927 89.9042L126.3 85.7156L122.111 95.3426ZM121.713 95.1694L125.902 85.5425L119.052 82.5622L113.991 88.0568L121.713 95.1694ZM108.888 86.885L105.043 77.116L100.996 78.7088L99.2614 82.6964L108.888 86.885ZM142.71 101.601L146.555 111.37L150.602 109.777L152.337 105.789L142.71 101.601ZM148.894 87.3883L153.082 77.7614L143.455 73.5728L139.267 83.1998L148.894 87.3883ZM170.212 96.6638L179.839 100.852L184.027 91.2254L174.401 87.0369L170.212 96.6638ZM167.12 103.77L162.932 113.397L172.558 117.585L176.747 107.958L167.12 103.77ZM152.908 97.5862L157.097 87.9593L147.47 83.7707L143.281 93.3977L152.908 97.5862ZM156.922 107.784L166.549 111.973L170.738 102.346L161.111 98.1572L156.922 107.784ZM126.329 119.827L116.702 115.638L112.513 125.265L122.14 129.454L126.329 119.827ZM132.512 105.615L128.667 95.8458L124.62 97.4386L122.885 101.426L132.512 105.615ZM143.633 118.905L139.444 128.531L149.071 132.72L153.259 123.093L143.633 118.905ZM139.618 108.707L135.773 98.9376L131.726 100.53L129.991 104.518L139.618 108.707ZM136.526 115.813L126.899 111.624L122.711 121.251L132.338 125.44L136.526 115.813ZM30.9507 102.008L34.7961 111.777L38.8426 110.184L40.5776 106.197L30.9507 102.008ZM37.1343 87.7958L41.3229 78.1689L31.696 73.9803L27.5074 83.6072L37.1343 87.7958ZM58.4526 97.0712L68.0795 101.26L72.2681 91.6329L62.6412 87.4443L58.4526 97.0712ZM55.3608 104.177L51.1722 113.804L60.7991 117.993L64.9877 108.366L55.3608 104.177ZM41.1486 97.9937L45.3372 88.3668L35.7102 84.1782L31.5217 93.8051L41.1486 97.9937ZM45.1629 108.192L54.7898 112.38L58.9784 102.753L49.3515 98.5647L45.1629 108.192ZM14.5692 120.234L4.94225 116.046L0.753651 125.673L10.3806 129.861L14.5692 120.234ZM20.7528 106.022L16.9073 96.2532L12.8608 97.8461L11.1259 101.834L20.7528 106.022ZM31.8732 119.312L27.6846 128.939L37.3115 133.127L41.5001 123.501L31.8732 119.312ZM27.8589 109.114L24.0134 99.345L19.9669 100.938L18.2319 104.925L27.8589 109.114ZM24.7671 116.22L15.1401 112.032L10.9516 121.658L20.5785 125.847L24.7671 116.22ZM65.6952 125.576L75.3221 129.765L77.0571 125.777L75.4642 121.731L65.6952 125.576ZM45.2994 133.605L35.6725 129.416L31.4839 139.043L41.1108 143.232L45.2994 133.605ZM48.3912 126.499L52.5798 116.872L42.9529 112.683L38.7643 122.31L48.3912 126.499ZM55.4973 129.591L51.3087 139.218L60.9356 143.406L65.1242 133.779L55.4973 129.591ZM58.5891 122.485L68.216 126.673L69.951 122.686L68.3581 118.639L58.5891 122.485ZM54.5748 112.287L44.9479 108.098L43.2129 112.086L44.8058 116.132L54.5748 112.287ZM60.7584 98.0745L64.947 88.4475L55.3201 84.2589L51.1315 93.8859L60.7584 98.0745ZM82.0767 107.35L91.7036 111.538L95.8922 101.912L86.2653 97.723L82.0767 107.35ZM75.8931 121.562L66.2662 117.373L64.5312 121.361L66.1241 125.408L75.8931 121.562ZM79.9074 131.76L89.5343 135.949L91.2693 131.961L89.6764 127.914L79.9074 131.76ZM73.7238 145.972L69.5352 155.599L79.1621 159.788L83.3507 150.161L73.7238 145.972ZM66.6177 142.88L56.9908 138.692L52.8022 148.319L62.4291 152.507L66.6177 142.88ZM72.8013 128.668L82.4282 132.857L84.1632 128.869L82.5703 124.823L72.8013 128.668ZM68.787 118.47L59.1601 114.282L57.4251 118.269L59.018 122.316L68.787 118.47ZM71.8788 111.364L81.5057 115.553L85.6943 105.926L76.0674 101.737L71.8788 111.364ZM64.7727 108.272L68.9613 98.6454L59.3344 94.4568L55.1458 104.084L64.7727 108.272ZM61.6809 115.378L52.054 111.19L50.319 115.177L51.9119 119.224L61.6809 115.378ZM77.1167 147.448L67.4897 143.26L63.3011 152.887L72.9281 157.075L77.1167 147.448ZM83.3003 133.236L79.4548 123.467L75.4083 125.06L73.6734 129.048L83.3003 133.236ZM93.4982 129.222L97.3436 138.991L101.39 137.398L103.125 133.41L93.4982 129.222ZM99.6818 115.01L103.87 105.383L94.2435 101.194L90.0549 110.821L99.6818 115.01ZM106.788 118.102L116.415 122.29L120.603 112.663L110.976 108.475L106.788 118.102ZM103.696 125.208L94.0691 121.019L89.8805 130.646L99.5075 134.835L103.696 125.208ZM110.802 128.299L106.614 137.926L116.24 142.115L120.429 132.488L110.802 128.299ZM129.029 144.681L132.874 154.45L136.921 152.857L138.656 148.87L129.029 144.681ZM118.831 148.695L114.985 138.926L110.939 140.519L109.204 144.507L118.831 148.695ZM97.5125 139.42L93.667 129.651L89.6205 131.244L87.8855 135.231L97.5125 139.42ZM107.71 135.405L111.556 145.175L135.14 135.891L111.899 125.779L107.71 135.405ZM100.604 132.314L104.793 122.687L100.805 120.952L96.7588 122.545L100.604 132.314ZM90.4064 136.328L86.5609 126.559L82.5144 128.152L80.7794 132.139L90.4064 136.328ZM84.2227 150.54L80.0341 160.167L89.6611 164.356L93.8497 154.729L84.2227 150.54ZM117.908 131.391L122.097 121.764L112.47 117.576L108.281 127.203L117.908 131.391ZM114.816 138.497L118.662 148.266L122.708 146.673L124.443 142.686L114.816 138.497ZM104.619 142.512L100.773 132.743L96.7266 134.335L94.9916 138.323L104.619 142.512ZM101.527 149.618L91.8998 145.429L87.7112 155.056L97.3381 159.245L101.527 149.618ZM108.633 152.709L104.444 162.336L114.071 166.525L118.26 156.898L108.633 152.709ZM111.725 145.603L107.879 135.834L103.833 137.427L102.098 141.415L111.725 145.603ZM121.923 141.589L125.768 151.358L129.814 149.765L131.549 145.778L121.923 141.589ZM125.014 134.483L134.641 138.672L138.83 129.045L129.203 124.856L125.014 134.483ZM135.549 139.067L125.922 134.878L121.734 144.505L131.361 148.694L135.549 139.067ZM138.641 131.961L142.83 122.334L133.203 118.145L129.014 127.772L138.641 131.961ZM159.959 141.236L169.586 145.425L173.775 135.798L164.148 131.609L159.959 141.236ZM156.867 148.342L160.713 158.111L164.759 156.518L166.494 152.531L156.867 148.342ZM146.669 152.356L142.824 142.587L119.239 151.871L142.481 161.983L146.669 152.356ZM123.182 167.491L113.555 163.302L109.366 172.929L118.993 177.118L123.182 167.491ZM126.274 160.385L130.462 150.758L120.835 146.569L116.647 156.196L126.274 160.385ZM140.486 166.569L136.297 176.195L145.924 180.384L150.113 170.757L140.486 166.569ZM143.578 159.462L153.205 163.651L157.393 154.024L147.766 149.835L143.578 159.462ZM136.472 156.371L126.845 152.182L122.656 161.809L132.283 165.998L136.472 156.371ZM139.563 149.265L135.718 139.495L131.671 141.088L129.936 145.076L139.563 149.265ZM149.761 145.25L153.607 155.019L177.191 145.735L153.95 135.623L149.761 145.25ZM69.7017 37.7048L72.7935 30.5987L53.5397 22.2215L50.4479 29.3276L69.7017 37.7048ZM67.0121 36.1791L77.21 32.1648L69.519 12.6268L59.3211 16.641L67.0121 36.1791ZM82.9914 26.5844L86.0832 19.4783L66.8294 11.1011L63.7376 18.2072L82.9914 26.5844ZM86.0832 19.4783C85.7348 20.2792 85.1276 20.7564 84.5818 20.9712C84.0361 21.1861 83.2665 21.2508 82.4656 20.9023L90.8428 1.6485C81.6603 -2.34674 70.8246 1.9186 66.8294 11.1011L86.0832 19.4783ZM82.4656 20.9023L89.5717 23.9941L97.9489 4.74031L90.8428 1.6485L82.4656 20.9023ZM89.5717 23.9941C88.7708 23.6457 88.2936 23.0385 88.0788 22.4927C87.8639 21.947 87.7992 21.1774 88.1477 20.3765L107.402 28.7537C111.397 19.5712 107.131 8.73555 97.9489 4.74031L89.5717 23.9941ZM88.1477 20.3765L85.0559 27.4826L104.31 35.8598L107.402 28.7537L88.1477 20.3765ZM90.8373 21.9022L80.6394 25.9165L88.3304 45.4545L98.5283 41.4403L90.8373 21.9022ZM74.858 31.4969L71.7662 38.603L91.02 46.9802L94.1118 39.8741L74.858 31.4969ZM77.2045 52.4185L84.3106 55.5103L92.6878 36.2565L85.5817 33.1647L77.2045 52.4185ZM78.8723 41.6948L75.7805 48.8009L95.0343 57.1781L98.1261 50.072L78.8723 41.6948ZM89.596 43.3626L54.0655 27.9036L45.6883 47.1574L81.2188 62.6164L89.596 43.3626ZM59.5038 41.7191L62.5956 34.613L43.3418 26.2358L40.25 33.3419L59.5038 41.7191ZM48.7801 40.0513L55.8862 43.1431L64.2634 23.8893L57.1573 20.7975L48.7801 40.0513ZM73.9355 14.1929L70.8437 21.299L90.0975 29.6762L93.1893 22.5701L73.9355 14.1929ZM76.6251 15.7186L66.4272 19.7329L74.1182 39.2709L84.3161 35.2566L76.6251 15.7186ZM60.6458 25.3133L57.554 32.4194L76.8078 40.7966L79.8996 33.6905L60.6458 25.3133ZM62.9923 46.2349L70.0984 49.3267L78.4756 30.0729L71.3695 26.9811L62.9923 46.2349ZM83.9139 43.8884L87.0057 36.7823L67.7519 28.4051L64.6601 35.5112L83.9139 43.8884ZM81.2243 42.3627L91.4222 38.3484L83.7312 18.8104L73.5333 22.8247L81.2243 42.3627ZM97.2036 32.768L100.295 25.6619L81.0416 17.2847L77.9498 24.3908L97.2036 32.768ZM94.8571 11.8464L87.751 8.75459L79.3738 28.0084L86.4799 31.1002L94.8571 11.8464ZM133.303 40.0231L136.394 32.917L117.141 24.5398L114.049 31.6459L133.303 40.0231ZM122.579 38.3553L129.685 41.4471L138.062 22.1933L130.956 19.1015L122.579 38.3553ZM124.247 27.6316L121.155 34.7377L140.409 43.1149L143.501 36.0088L124.247 27.6316ZM126.593 48.5532L147.912 57.8286L156.289 38.5748L134.97 29.2994L126.593 48.5532ZM142.473 44.0131L139.381 51.1192L158.635 59.4964L161.727 52.3903L142.473 44.0131ZM153.197 45.6809L138.985 39.4973L130.608 58.7511L144.82 64.9347L153.197 45.6809ZM125.027 52.9697L129.041 63.1676L148.579 55.4766L144.565 45.2787L125.027 52.9697ZM129.184 55.1335L126.092 62.2396L145.346 70.6168L148.437 63.5107L129.184 55.1335ZM131.53 76.0551L138.636 79.1469L147.013 59.8931L139.907 56.8013L131.53 76.0551ZM133.198 65.3314L130.106 72.4375L149.36 80.8147L152.452 73.7086L133.198 65.3314ZM143.921 66.9992L136.759 63.8827L128.381 83.1365L135.544 86.253L143.921 66.9992ZM136.9 63.9453C138.204 64.5357 138.883 66.0467 138.239 67.525L118.986 59.1478C114.979 68.3575 119.254 79.0059 128.24 83.0739L136.9 63.9453ZM138.239 67.525L141.331 60.4189L122.077 52.0417L118.986 59.1478L138.239 67.525ZM141.473 52.3848L137.459 42.1869L117.921 49.8779L121.935 60.0758L141.473 52.3848ZM118.063 41.8438L108.788 63.1621L128.042 71.5393L137.317 50.221L118.063 41.8438ZM122.603 57.7238L115.497 54.632L107.12 73.8858L114.226 76.9776L122.603 57.7238ZM120.935 68.4475L130.211 47.1292L110.957 38.752L101.682 60.0703L120.935 68.4475ZM116.738 33.1716L106.541 37.1858L114.232 56.7239L124.429 52.7096L116.738 33.1716ZM100.759 42.7663L97.6673 49.8724L116.921 58.2496L120.013 51.1435L100.759 42.7663ZM97.6673 49.8724C98.3105 48.3941 99.8788 47.8608 101.2 48.4125L93.1066 67.7875C102.208 71.5894 112.914 67.4593 116.921 58.2496L97.6673 49.8724ZM101.342 48.4731L94.1788 45.3566L85.8016 64.6104L92.9646 67.7269L101.342 48.4731ZM99.6172 59.1721L102.709 52.066L83.4551 43.6888L80.3633 50.7949L99.6172 59.1721ZM88.8935 57.5043L95.9995 60.5961L104.377 41.3423L97.2706 38.2505L88.8935 57.5043ZM109.815 55.1578L112.907 48.0517L93.653 39.6745L90.5612 46.7806L109.815 55.1578ZM107.125 53.6321L117.323 49.6178L109.632 30.0798L99.4345 34.094L107.125 53.6321ZM117.666 30.2219L103.454 24.0383L95.0771 43.2921L109.289 49.4757L117.666 30.2219ZM108.893 37.8538L111.984 30.7477L92.7306 22.3705L89.6387 29.4766L108.893 37.8538ZM98.1689 36.186L119.487 45.4614L127.864 26.2076L106.546 16.9322L98.1689 36.186ZM169.148 64.0705L172.24 56.9644L152.986 48.5872L149.894 55.6933L169.148 64.0705ZM172.24 56.9644C171.891 57.7653 171.284 58.2425 170.738 58.4573C170.193 58.6722 169.423 58.7369 168.622 58.3884L176.999 39.1346C167.817 35.1394 156.981 39.4047 152.986 48.5872L172.24 56.9644ZM168.622 58.3884L175.728 61.4802L184.106 42.2264L176.999 39.1346L168.622 58.3884ZM175.728 61.4802C174.927 61.1318 174.45 60.5246 174.235 59.9788C174.021 59.433 173.956 58.6635 174.304 57.8626L193.558 66.2398C197.553 57.0573 193.288 46.2216 184.106 42.2264L175.728 61.4802ZM174.304 57.8626L171.213 64.9687L190.466 73.3459L193.558 66.2398L174.304 57.8626ZM176.994 59.3883L166.796 63.4025L174.487 82.9406L184.685 78.9263L176.994 59.3883ZM161.015 68.983L154.831 83.1952L174.085 91.5724L180.268 77.3602L161.015 68.983ZM168.647 77.7569L161.54 74.6651L153.163 93.9189L160.269 97.0107L168.647 77.7569ZM166.979 88.4806L170.071 81.3745L150.817 72.9973L147.725 80.1034L166.979 88.4806ZM164.632 67.559L157.526 64.4672L149.149 83.721L156.255 86.8128L164.632 67.559ZM143.711 69.9055L140.619 77.0116L159.873 85.3888L162.964 78.2827L143.711 69.9055ZM154.434 71.5732L147.328 68.4814L138.951 87.7353L146.057 90.8271L154.434 71.5732ZM152.767 82.297L158.95 68.0848L139.696 59.7076L133.513 73.9198L152.767 82.297ZM153.169 73.6652L163.367 69.6509L155.676 50.1128L145.478 54.1271L153.169 73.6652ZM183.36 70.2541L186.452 63.148L167.198 54.7708L164.106 61.8769L183.36 70.2541ZM181.014 49.3325L173.908 46.2407L165.53 65.4945L172.637 68.5863L181.014 49.3325ZM160.092 51.679L157 58.7851L176.254 67.1623L179.346 60.0562L160.092 51.679ZM162.782 53.2046L152.584 57.2189L160.275 76.757L170.473 72.7427L162.782 53.2046ZM152.241 76.6149L159.347 79.7067L167.724 60.4529L160.618 57.3611L152.241 76.6149ZM167.381 79.8488L177.579 75.8345L169.888 56.2965L159.69 60.3107L167.381 79.8488ZM196.991 67.7334L200.083 60.6273L180.829 52.2501L177.737 59.3562L196.991 67.7334ZM186.267 66.0656L207.586 75.3411L215.963 56.0872L194.644 46.8118L186.267 66.0656ZM202.147 61.5255L199.055 68.6316L218.309 77.0088L221.401 69.9027L202.147 61.5255ZM204.837 63.0512L194.639 67.0655L202.33 86.6036L212.528 82.5893L204.837 63.0512ZM194.296 86.4614C193.495 86.113 193.018 85.5058 192.803 84.96C192.588 84.4143 192.523 83.6447 192.872 82.8438L212.126 91.221C216.121 82.0385 211.856 71.2028 202.673 67.2076L194.296 86.4614ZM192.872 82.8438L189.78 89.9499L209.034 98.3271L212.126 91.221L192.872 82.8438ZM189.78 89.9499C190.128 89.149 190.736 88.6718 191.281 88.457C191.827 88.2421 192.597 88.1774 193.398 88.5259L185.02 107.78C194.203 111.775 205.039 107.51 209.034 98.3271L189.78 89.9499ZM193.398 88.5259L179.185 82.3423L170.808 101.596L185.02 107.78L193.398 88.5259ZM184.624 96.1578L187.716 89.0517L168.462 80.6745L165.37 87.7806L184.624 96.1578ZM173.9 94.49L188.112 100.674L196.489 81.4198L182.277 75.2362L173.9 94.49ZM201.928 95.2353L205.02 88.1292L185.766 79.752L182.674 86.8581L201.928 95.2353ZM199.581 74.3137L192.475 71.2219L184.098 90.4757L191.204 93.5675L199.581 74.3137ZM197.913 85.0374L201.005 77.9313L181.751 69.5541L178.66 76.6602L197.913 85.0374ZM195.224 83.5118L205.422 79.4975L197.731 59.9594L187.533 63.9737L195.224 83.5118ZM205.765 60.1015L191.553 53.9179L183.175 73.1717L197.388 79.3553L205.765 60.1015ZM55.0027 91.7917L62.1088 94.8835L70.486 75.6297L63.3799 72.5379L55.0027 91.7917ZM56.6705 81.068L53.5787 88.1741L72.8325 96.5513L75.9243 89.4452L56.6705 81.068ZM67.3942 82.7358L60.2313 79.6193L51.8541 98.8731L59.017 101.99L67.3942 82.7358ZM60.3724 79.6819C61.6765 80.2723 62.3553 81.7833 61.7121 83.2616L42.4583 74.8844C38.4512 84.0941 42.7269 94.7425 51.713 98.8105L60.3724 79.6819ZM61.7121 83.2616L64.8039 76.1555L45.5501 67.7783L42.4583 74.8844L61.7121 83.2616ZM64.9461 68.1215L60.9318 57.9236L41.3937 65.6145L45.408 75.8124L64.9461 68.1215ZM41.5358 57.5804L32.2604 78.8987L51.5142 87.2759L60.7897 65.9576L41.5358 57.5804ZM46.0759 73.4604L38.9698 70.3686L30.5926 89.6224L37.6987 92.7142L46.0759 73.4604ZM44.4081 84.1841L59.8672 48.6536L40.6133 40.2764L25.1543 75.8069L44.4081 84.1841ZM46.0517 54.092L53.1578 57.1838L61.5349 37.9299L54.4289 34.8381L46.0517 54.092ZM47.7194 43.3682L44.6276 50.4743L63.8815 58.8515L66.9733 51.7454L47.7194 43.3682ZM50.0659 64.2898L71.3842 73.5653L79.7614 54.3114L58.4431 45.036L50.0659 64.2898ZM65.9459 59.7498L62.8541 66.8558L82.1079 75.233L85.1997 68.1269L65.9459 59.7498ZM76.6696 61.4175L62.4574 55.2339L54.0802 74.4878L68.2924 80.6714L76.6696 61.4175ZM48.4998 68.7063L52.5141 78.9042L72.0522 71.2133L68.0379 61.0154L48.4998 68.7063ZM52.6562 70.8701L49.5644 77.9762L68.8182 86.3534L71.91 79.2473L52.6562 70.8701ZM78.5546 82.1383L75.4628 89.2444L94.7166 97.6216L97.8084 90.5155L78.5546 82.1383ZM75.4628 89.2444C75.8112 88.4435 76.4184 87.9663 76.9642 87.7515C77.51 87.5366 78.2795 87.4719 79.0804 87.8204L70.7032 107.074C79.8857 111.069 90.7214 106.804 94.7166 97.6216L75.4628 89.2444ZM79.0804 87.8204L71.9743 84.7286L63.5971 103.982L70.7032 107.074L79.0804 87.8204ZM77.4126 98.5441L80.5044 91.438L61.2506 83.0608L58.1588 90.1669L77.4126 98.5441ZM66.6889 96.8763L73.795 99.9681L82.1722 80.7143L75.0661 77.6225L66.6889 96.8763ZM87.6105 94.5298L90.7023 87.4237L71.4485 79.0465L68.3567 86.1526L87.6105 94.5298ZM90.8444 79.3896L86.8302 69.1917L67.2921 76.8827L71.3064 87.0806L90.8444 79.3896ZM86.688 77.2258L92.8716 63.0136L73.6178 54.6364L67.4342 68.8486L86.688 77.2258ZM79.0561 68.4519L100.374 77.7274L108.752 58.4735L87.4333 49.1981L79.0561 68.4519ZM94.9361 63.9118L88.7525 78.124L108.006 86.5012L114.19 72.289L94.9361 63.9118ZM88.6103 86.1581L92.6246 96.356L112.163 88.6651L108.148 78.4672L88.6103 86.1581ZM92.7668 88.3219L86.5832 102.534L105.837 110.911L112.021 96.6991L92.7668 88.3219ZM100.399 97.0958L93.2926 94.004L84.9154 113.258L92.0215 116.35L100.399 97.0958ZM98.7309 107.819L104.914 93.6073L85.6607 85.2301L79.4771 99.4423L98.7309 107.819ZM105.057 85.5732L101.042 75.3753L81.5043 83.0663L85.5185 93.2642L105.057 85.5732ZM100.9 83.4094L103.992 76.3033L84.7382 67.9261L81.6464 75.0322L100.9 83.4094ZM98.5537 62.4878L91.4476 59.396L83.0704 78.6498L90.1765 81.7416L98.5537 62.4878ZM77.6321 64.8343L74.5403 71.9404L93.7941 80.3176L96.8859 73.2115L77.6321 64.8343ZM74.3982 79.9745L78.4124 90.1724L97.9505 82.4814L93.9362 72.2835L74.3982 79.9745ZM128.713 87.0593L131.805 79.9532L112.551 71.576L109.459 78.6821L128.713 87.0593ZM117.989 85.3915L125.096 88.4833L133.473 69.2295L126.367 66.1377L117.989 85.3915ZM119.657 74.6678L116.565 81.7739L135.819 90.1511L138.911 83.045L119.657 74.6678ZM122.347 76.1935L112.149 80.2078L119.84 99.7458L130.038 95.7316L122.347 76.1935ZM111.806 99.6037L118.912 102.696L127.289 83.4417L120.183 80.3499L111.806 99.6037ZM126.946 102.838L137.144 98.8234L129.453 79.2853L119.255 83.2996L126.946 102.838ZM142.925 93.2429L146.017 86.1368L126.763 77.7596L123.672 84.8657L142.925 93.2429ZM132.202 91.5751L139.308 94.6669L147.685 75.4131L140.579 72.3213L132.202 91.5751ZM133.869 80.8514L130.778 87.9575L150.031 96.3347L153.123 89.2286L133.869 80.8514ZM136.559 82.3771L126.361 86.3914L134.052 105.929L144.25 101.915L136.559 82.3771ZM120.58 91.9718L114.396 106.184L133.65 114.561L139.834 100.349L120.58 91.9718ZM114.396 106.184C114.745 105.383 115.352 104.906 115.898 104.691C116.443 104.476 117.213 104.412 118.014 104.76L109.637 124.014C118.819 128.009 129.655 123.744 133.65 114.561L114.396 106.184ZM118.014 104.76L103.802 98.5764L95.4243 117.83L109.637 124.014L118.014 104.76ZM109.24 112.392L112.332 105.286L93.0778 96.9086L89.986 104.015L109.24 112.392ZM98.5162 110.724L112.728 116.908L121.106 97.6539L106.893 91.4703L98.5162 110.724ZM126.544 111.469L131.738 99.5311L112.484 91.154L107.29 103.092L126.544 111.469ZM126.3 85.7156L125.902 85.5425L117.525 104.796L117.923 104.969L126.3 85.7156ZM113.991 88.0568C114.383 87.6312 114.851 87.3814 115.327 87.2738C115.824 87.1613 116.456 87.1797 117.091 87.456L108.714 106.71C116.108 109.927 124.396 107.754 129.435 102.282L113.991 88.0568ZM117.091 87.456C117.892 87.8044 118.369 88.4116 118.584 88.9574C118.799 89.5032 118.864 90.2727 118.515 91.0736L99.2614 82.6964C95.2662 91.8789 99.5315 102.715 108.714 106.71L117.091 87.456ZM112.734 96.654L122.932 92.6397L115.241 73.1017L105.043 77.116L112.734 96.654ZM152.337 105.789L158.521 91.5769L139.267 83.1998L133.083 97.4119L152.337 105.789ZM144.705 97.0153L166.023 106.291L174.401 87.0369L153.082 77.7614L144.705 97.0153ZM160.585 92.4752L157.493 99.5813L176.747 107.958L179.839 100.852L160.585 92.4752ZM171.309 94.1429L157.097 87.9593L148.719 107.213L162.932 113.397L171.309 94.1429ZM143.281 93.3977L140.189 100.504L159.443 108.881L162.535 101.775L143.281 93.3977ZM145.628 114.319L152.734 117.411L161.111 98.1572L154.005 95.0654L145.628 114.319ZM147.295 103.596L141.112 117.808L160.366 126.185L166.549 111.973L147.295 103.596ZM141.112 117.808C141.46 117.007 142.067 116.53 142.613 116.315C143.159 116.1 143.928 116.035 144.729 116.384L136.352 135.638C145.535 139.633 156.37 135.367 160.366 126.185L141.112 117.808ZM144.729 116.384L130.517 110.2L122.14 129.454L136.352 135.638L144.729 116.384ZM135.955 124.016L142.139 109.803L122.885 101.426L116.702 115.638L135.955 124.016ZM136.358 115.384L146.555 111.37L138.865 91.8315L128.667 95.8458L136.358 115.384ZM153.259 123.093L159.443 108.881L140.189 100.504L134.006 114.716L153.259 123.093ZM145.971 94.9233L135.773 98.9376L143.464 118.476L153.662 114.461L145.971 94.9233ZM129.991 104.518L126.899 111.624L146.153 120.001L149.245 112.895L129.991 104.518ZM132.338 125.44L139.444 128.531L147.821 109.278L140.715 106.186L132.338 125.44ZM40.5776 106.197L46.7612 91.9844L27.5074 83.6072L21.3238 97.8194L40.5776 106.197ZM32.9457 97.4227L54.264 106.698L62.6412 87.4443L41.3229 78.1689L32.9457 97.4227ZM48.8256 92.8826L45.7338 99.9887L64.9877 108.366L68.0795 101.26L48.8256 92.8826ZM59.5494 94.5504L45.3372 88.3668L36.96 107.621L51.1722 113.804L59.5494 94.5504ZM31.5217 93.8051L28.4298 100.911L47.6837 109.288L50.7755 102.182L31.5217 93.8051ZM33.8682 114.727L40.9743 117.818L49.3515 98.5647L42.2454 95.4728L33.8682 114.727ZM35.5359 104.003L29.3523 118.215L48.6062 126.592L54.7898 112.38L35.5359 104.003ZM29.3523 118.215C29.7008 117.414 30.308 116.937 30.8537 116.722C31.3995 116.507 32.1691 116.443 32.9699 116.791L24.5928 136.045C33.7753 140.04 44.6109 135.775 48.6062 126.592L29.3523 118.215ZM32.9699 116.791L18.7578 110.608L10.3806 129.861L24.5928 136.045L32.9699 116.791ZM24.1961 124.423L30.3797 110.211L11.1259 101.834L4.94225 116.046L24.1961 124.423ZM24.5982 115.791L34.7961 111.777L27.1052 92.2389L16.9073 96.2532L24.5982 115.791ZM41.5001 123.501L47.6837 109.288L28.4298 100.911L22.2462 115.123L41.5001 123.501ZM34.2113 95.3307L24.0134 99.345L31.7043 118.883L41.9022 114.869L34.2113 95.3307ZM18.2319 104.925L15.1401 112.032L34.394 120.409L37.4858 113.303L18.2319 104.925ZM20.5785 125.847L27.6846 128.939L36.0617 109.685L28.9557 106.593L20.5785 125.847ZM56.0683 121.388L52.9765 128.494L72.2303 136.871L75.3221 129.765L56.0683 121.388ZM52.9765 128.494C53.3249 127.693 53.9321 127.216 54.4779 127.001C55.0237 126.786 55.7932 126.721 56.5941 127.07L48.2169 146.324C57.3994 150.319 68.2351 146.054 72.2303 136.871L52.9765 128.494ZM56.5941 127.07L49.488 123.978L41.1108 143.232L48.2169 146.324L56.5941 127.07ZM54.9263 137.794L58.0181 130.687L38.7643 122.31L35.6725 129.416L54.9263 137.794ZM44.2026 136.126L51.3087 139.218L59.6859 119.964L52.5798 116.872L44.2026 136.126ZM65.1242 133.779L68.216 126.673L48.9622 118.296L45.8704 125.402L65.1242 133.779ZM68.3581 118.639L64.3439 108.441L44.8058 116.132L48.8201 126.33L68.3581 118.639ZM64.2017 116.475L70.3853 102.263L51.1315 93.8859L44.9479 108.098L64.2017 116.475ZM56.5698 107.701L77.8881 116.977L86.2653 97.723L64.947 88.4475L56.5698 107.701ZM72.4498 103.161L66.2662 117.373L85.52 125.751L91.7036 111.538L72.4498 103.161ZM66.1241 125.408L70.1383 135.605L89.6764 127.914L85.6621 117.717L66.1241 125.408ZM70.2805 127.571L64.0969 141.784L83.3507 150.161L89.5343 135.949L70.2805 127.571ZM77.9124 136.345L70.8063 133.253L62.4291 152.507L69.5352 155.599L77.9124 136.345ZM76.2446 147.069L82.4282 132.857L63.1744 124.48L56.9908 138.692L76.2446 147.069ZM82.5703 124.823L78.556 114.625L59.018 122.316L63.0323 132.514L82.5703 124.823ZM78.4139 122.659L81.5057 115.553L62.2519 107.176L59.1601 114.282L78.4139 122.659ZM76.0674 101.737L68.9613 98.6454L60.5841 117.899L67.6902 120.991L76.0674 101.737ZM55.1458 104.084L52.054 111.19L71.3078 119.567L74.3996 112.461L55.1458 104.084ZM51.9119 119.224L55.9262 129.422L75.4642 121.731L71.45 111.533L51.9119 119.224ZM86.7436 151.637L92.9272 137.425L73.6734 129.048L67.4897 143.26L86.7436 151.637ZM87.1457 143.005L97.3436 138.991L89.6527 119.453L79.4548 123.467L87.1457 143.005ZM103.125 133.41L109.309 119.198L90.0549 110.821L83.8712 125.033L103.125 133.41ZM95.4932 124.637L102.599 127.728L110.976 108.475L103.87 105.383L95.4932 124.637ZM97.161 113.913L94.0691 121.019L113.323 129.396L116.415 122.29L97.161 113.913ZM99.5075 134.835L106.614 137.926L114.991 118.672L107.885 115.581L99.5075 134.835ZM120.429 132.488C120.081 133.289 119.473 133.766 118.928 133.981C118.382 134.196 117.612 134.26 116.811 133.912L125.189 114.658C116.006 110.663 105.17 114.928 101.175 124.111L120.429 132.488ZM116.811 133.912L123.918 137.004L132.295 117.75L125.189 114.658L116.811 133.912ZM123.918 137.004C123.117 136.655 122.639 136.048 122.425 135.502C122.21 134.957 122.145 134.187 122.494 133.386L141.747 141.763C145.743 132.581 141.477 121.745 132.295 117.75L123.918 137.004ZM122.494 133.386L119.402 140.492L138.656 148.87L141.747 141.763L122.494 133.386ZM125.183 134.912L114.985 138.926L122.676 158.464L132.874 154.45L125.183 134.912ZM109.204 144.507L106.112 151.613L125.366 159.99L128.458 152.884L109.204 144.507ZM106.112 151.613C106.46 150.812 107.068 150.335 107.613 150.12C108.159 149.905 108.929 149.84 109.73 150.189L101.352 169.442C110.535 173.438 121.371 169.172 125.366 159.99L106.112 151.613ZM109.73 150.189L102.624 147.097L94.2463 166.351L101.352 169.442L109.73 150.189ZM102.624 147.097C103.424 147.445 103.902 148.052 104.116 148.598C104.331 149.144 104.396 149.914 104.048 150.714L84.7937 142.337C80.7985 151.52 85.0638 162.355 94.2463 166.351L102.624 147.097ZM104.048 150.714L107.139 143.608L87.8855 135.231L84.7937 142.337L104.048 150.714ZM101.358 149.189L111.556 145.175L103.865 125.636L93.667 129.651L101.358 149.189ZM111.899 125.779L104.793 122.687L96.4157 141.941L103.522 145.032L111.899 125.779ZM96.7588 122.545L86.5609 126.559L94.2518 146.097L104.45 142.083L96.7588 122.545ZM80.7794 132.139L74.5958 146.352L93.8497 154.729L100.033 140.517L80.7794 132.139ZM88.4113 140.913L81.3053 137.821L72.9281 157.075L80.0341 160.167L88.4113 140.913ZM108.281 127.203L105.19 134.309L124.443 142.686L127.535 135.58L108.281 127.203ZM110.971 128.728L100.773 132.743L108.464 152.281L118.662 148.266L110.971 128.728ZM94.9916 138.323L91.8998 145.429L111.154 153.806L114.245 146.7L94.9916 138.323ZM97.3381 159.245L104.444 162.336L112.821 143.083L105.715 139.991L97.3381 159.245ZM118.26 156.898L121.352 149.792L102.098 141.415L99.0059 148.521L118.26 156.898ZM115.57 155.372L125.768 151.358L118.077 131.82L107.879 135.834L115.57 155.372ZM131.549 145.778L134.641 138.672L115.387 130.294L112.296 137.401L131.549 145.778ZM129.203 124.856L122.097 121.764L113.72 141.018L120.826 144.11L129.203 124.856ZM145.176 143.255L148.268 136.149L129.014 127.772L125.922 134.878L145.176 143.255ZM134.452 141.587L155.771 150.863L164.148 131.609L142.83 122.334L134.452 141.587ZM150.332 137.047L147.24 144.153L166.494 152.531L169.586 145.425L150.332 137.047ZM153.022 138.573L142.824 142.587L150.515 162.125L160.713 158.111L153.022 138.573ZM142.481 161.983C141.68 161.635 141.203 161.028 140.988 160.482C140.773 159.936 140.708 159.167 141.057 158.366L160.311 166.743C164.306 157.56 160.041 146.725 150.858 142.729L142.481 161.983ZM141.057 158.366L137.965 165.472L157.219 173.849L160.311 166.743L141.057 158.366ZM137.965 165.472C138.314 164.671 138.921 164.194 139.466 163.979C140.012 163.764 140.782 163.699 141.583 164.048L133.205 183.302C142.388 187.297 153.224 183.031 157.219 173.849L137.965 165.472ZM141.583 164.048L127.37 157.864L118.993 177.118L133.205 183.302L141.583 164.048ZM132.809 171.68L135.901 164.573L116.647 156.196L113.555 163.302L132.809 171.68ZM122.085 170.012L136.297 176.195L144.674 156.942L130.462 150.758L122.085 170.012ZM150.113 170.757L153.205 163.651L133.951 155.274L130.859 162.38L150.113 170.757ZM147.766 149.835L140.66 146.744L132.283 165.998L139.389 169.089L147.766 149.835ZM146.099 160.559L149.19 153.453L129.936 145.076L126.845 152.182L146.099 160.559ZM143.409 159.034L153.607 155.019L145.916 135.481L135.718 139.495L143.409 159.034ZM153.95 135.623L139.738 129.44L131.361 148.694L145.573 154.877L153.95 135.623Z" fill="#2A2A2A" mask="url(#path-1-outside-1_806_93)"/>
</svg>
